<svg width="358" height="12" viewBox="0 0 358 12" fill="none" xmlns="http://www.w3.org/2000/svg">
<mask id="mask0_87_220" style="mask-type:alpha" maskUnits="userSpaceOnUse" x="0" y="0" width="358" height="12">
<rect width="358" height="12" fill="#C4C4C4"/>
</mask>
<g mask="url(#mask0_87_220)">
<path d="M53.7732 -2.53772L54.6481 -2.6959L52.9455 -2.92267L53.7617 -3.08867C54.5801 -3.08716 55.6405 -2.83842 56.2175 -2.97058C56.2881 -3.09855 55.3969 -3.13962 55.1695 -3.24157C54.9682 -3.34607 54.804 -3.44989 54.6787 -3.55178C55.1244 -3.55068 55.6144 -3.52603 56.1197 -3.47929C56.7993 -3.40294 57.4658 -3.36583 58.0458 -3.37204C59.2318 -3.35143 60.3776 -3.372 61.6671 -3.36746L61.2381 -3.67543L62.8999 -3.60338C63.076 -3.57992 63.286 -3.61765 63.459 -3.58863C64.8993 -3.34305 65.5087 -3.47687 66.2 -3.58783C66.3418 -3.61654 66.5126 -3.63798 66.7078 -3.65158C68.6291 -3.59275 70.3615 -3.24854 72.0918 -3.07182C72.4174 -3.02671 72.7298 -2.9688 73.0067 -2.90219C73.6085 -2.77271 74.2779 -2.667 74.9537 -2.59472C75.6295 -2.52245 76.29 -2.48592 76.8751 -2.48847C78.1687 -2.49133 79.6301 -2.40569 81.1181 -2.23984C81.5606 -2.1852 82.0033 -2.14917 82.4182 -2.13402C82.833 -2.11886 83.2109 -2.12493 83.5274 -2.15183L84.5335 -1.97603C84.9696 -2.04736 85.5225 -2.0865 86.1588 -2.09107C86.795 -2.09563 87.5013 -2.06553 88.2348 -2.00259C89.0165 -1.93431 89.8104 -1.88828 90.6214 -1.81609C92.2967 -1.67808 93.9271 -1.59368 95.462 -1.56551C97.7478 -1.48201 99.9811 -1.41746 102.287 -1.31337C103.73 -1.26312 105.135 -1.23549 106.495 -1.23061C108.125 -1.21095 109.887 -1.11581 111.697 -0.949776C111.612 -0.793997 110.818 -0.840019 110.285 -0.845292C108.566 -0.871184 106.807 -0.938276 105.039 -0.988679C104.242 -1.00835 103.467 -1.01581 102.719 -1.01098C101.468 -1.01744 100.149 -1.05895 98.7854 -1.13479C96.6308 -1.21825 94.545 -1.25837 92.5493 -1.25474C92.3929 -1.24857 92.2496 -1.23764 92.1217 -1.22212C92.095 -1.20868 92.0898 -1.19174 92.1064 -1.17291C92.1231 -1.15409 92.1611 -1.134 92.2168 -1.1146C92.2725 -1.09519 92.344 -1.07711 92.4246 -1.06207C92.5052 -1.04704 92.5921 -1.03555 92.6769 -1.02873C93.4695 -0.923159 94.3208 -0.809772 95.0683 -0.79382C95.0972 -0.792627 95.128 -0.789906 95.1584 -0.785849C95.1889 -0.781791 95.2183 -0.776501 95.2444 -0.77036C96.9177 -0.547488 98.2935 -0.585203 99.597 -0.548943C101.761 -0.450944 103.847 -0.405165 105.824 -0.412306C106.123 -0.41182 106.445 -0.399081 106.78 -0.374548C108.85 -0.275099 110.786 -0.263977 112.497 -0.341682C113.201 -0.361369 113.855 -0.405563 114.612 -0.406302C115.078 -0.409345 115.484 -0.437546 115.805 -0.489222C116.126 -0.540897 116.355 -0.614977 116.479 -0.707005C116.799 -0.658553 117.123 -0.615372 117.448 -0.577978C117.642 -0.556597 117.829 -0.550917 117.969 -0.562106C118.11 -0.573295 118.195 -0.600514 118.206 -0.638259C118.264 -0.743966 117.821 -0.797053 117.436 -0.842319C117.668 -0.86499 117.93 -0.878327 118.214 -0.882008C119.817 -0.906163 121.537 -0.877654 123.335 -0.79711C124.732 -0.700702 125.846 -0.779172 127.316 -0.643214C127.492 -0.619755 127.637 -0.654188 127.799 -0.662456C128.222 -0.705994 128.748 -0.71578 129.333 -0.690958C129.918 -0.666136 130.543 -0.607454 131.155 -0.520003C131.917 -0.758925 133.563 -0.485978 134.778 -0.461446C135.152 -0.339944 134.723 -0.361304 134.704 -0.327922C134.686 -0.294541 134.704 -0.32793 134.558 -0.34748C133.344 -0.17541 131.682 -0.13789 129.803 -0.240192C129.456 -0.239769 129.125 -0.231929 128.814 -0.216751C128.342 -0.195269 127.81 -0.197414 127.242 -0.223092C126.62 -0.241952 126.05 -0.232995 125.557 -0.196654C125.273 -0.197246 125.034 -0.179042 124.86 -0.143715C124.686 -0.10839 124.584 -0.0570869 124.563 0.00542227C124.752 0.0536119 124.962 0.0977052 125.185 0.135954C126.345 0.286972 127.502 0.349481 128.428 0.311185C130.04 0.2452 131.958 0.309591 133.672 0.287065C134.831 0.277939 136.064 0.303933 137.348 0.364561C137.348 0.364561 137.314 0.425759 137.311 0.431323C137.463 0.45782 137.622 0.47908 137.781 0.493885C137.781 0.493885 137.781 0.493886 137.796 0.466068C137.726 0.439354 137.63 0.414223 137.521 0.393585L137.139 0.342753C137.399 0.329525 137.641 0.29014 137.911 0.314203C138.481 0.35891 139.025 0.377782 139.512 0.369703C139.998 0.361622 140.416 0.326748 140.742 0.267179C141.318 0.190832 142.035 0.156113 142.846 0.165263C143.468 0.156928 144.067 0.139014 144.64 0.111609C144.64 0.111609 144.677 0.044852 144.949 0.00936921C144.691 -0.0343924 144.423 -0.070129 144.156 -0.0961969C142.995 -0.161325 141.83 -0.22089 140.689 -0.26542C140.268 -0.270229 139.873 -0.262768 139.51 -0.243182C138.506 -0.220263 137.378 -0.252792 136.191 -0.338874C136.191 -0.338874 135.957 -0.370152 135.839 -0.385792C136.172 -0.532546 137.32 -0.385628 137.784 -0.485014C138.067 -0.483205 138.564 -0.470707 138.547 -0.496871C138.509 -0.531785 138.504 -0.564221 138.534 -0.59185C138.564 -0.619479 138.627 -0.641619 138.72 -0.656681C138.812 -0.671742 138.932 -0.679354 139.07 -0.678969C139.207 -0.678581 139.36 -0.670201 139.516 -0.654442C140.823 -0.569177 142.054 -0.545466 143.133 -0.584761C143.543 -0.584001 144.001 -0.55873 144.407 -0.552408C144.656 -0.544792 144.883 -0.549028 145.076 -0.564879C146.057 -0.681622 147.378 -0.690148 148.839 -0.589176C149.545 -0.552876 150.205 -0.548019 150.785 -0.574861C151.197 -0.579665 151.372 -0.496665 151.666 -0.457564L152.912 -0.375139L151.311 -0.27186C151.653 -0.0351758 151.926 0.0428659 152.485 0.0576121C153.3 0.0798794 154.094 0.0899381 154.863 0.087729C155.431 0.0857837 155.9 0.0348109 156.67 0.125346C156.806 0.140112 156.937 0.144892 157.04 0.138882C157.941 0.058508 159.026 0.0400625 160.221 0.0848029C160.84 -0.0657044 161.894 0.0806277 162.869 0.198533C163.183 0.0851605 162.613 0.0331172 162.273 -0.0360565C163.088 -0.0289746 163.91 -0.0330186 164.752 -0.0164637C165.005 -0.0224908 165.294 -0.0121811 165.597 0.0136515C165.9 0.0394842 166.208 0.0801344 166.497 0.132424C166.638 0.16621 166.808 0.191639 166.972 0.203429C167.135 0.215218 167.28 0.212468 167.376 0.195747C167.813 0.146433 168.513 0.191852 168.874 0.108555C169.002 0.0893971 169.186 0.086724 169.391 0.101001C169.597 0.115275 169.812 0.145578 169.997 0.186475C169.794 0.199234 169.614 0.219327 169.46 0.246311C168.907 0.333966 169.11 0.480428 169.812 0.693361C170.89 0.68165 171.991 0.684976 172.99 0.644844C173.547 0.608819 174.229 0.62008 174.96 0.677365C175.691 0.734649 176.442 0.835681 177.128 0.969105C177.376 1.02041 177.659 1.05594 177.921 1.06865C178.183 1.08136 178.403 1.07031 178.54 1.03769C178.625 0.999967 178.651 0.952225 178.616 0.898602L177.912 0.804765C177.912 0.804765 177.939 0.754692 177.946 0.743565L178.959 0.735154C179.494 0.734862 180.053 0.74961 180.56 0.745409C181.304 0.717465 182.153 0.733042 183.056 0.79117C183.888 0.850775 184.706 0.895829 185.502 0.925935C186.273 0.956924 186.831 0.858135 187.565 0.842359C188.12 0.830468 188.73 0.843176 189.372 0.879987C190.481 0.945275 191.5 0.945396 192.334 0.880339C193.306 1.23086 193.779 1.28786 194.682 1.19314L195.107 1.16608L195.223 1.24126L195.547 1.22473C196.154 1.21 196.761 1.19528 197.394 1.19003C198.274 1.22256 199.225 1.31008 200.153 1.44404C200.329 1.4675 200.569 1.54721 200.723 1.60961C200.878 1.67202 201.215 1.86028 201.463 1.98283C201.193 2.0723 200.894 2.15785 200.68 2.2607C200.658 2.27827 200.66 2.29922 200.686 2.32187C200.711 2.34452 200.76 2.36824 200.827 2.39111C200.894 2.41398 200.978 2.43538 201.072 2.45357C201.166 2.47177 201.268 2.48627 201.369 2.49589C201.567 2.51663 201.761 2.53046 201.946 2.5368C202.853 2.54774 203.721 2.53961 204.543 2.51248C204.843 2.47422 205.254 2.47058 205.71 2.50216C206.166 2.53374 206.642 2.59872 207.062 2.6868C208.137 2.63392 209.386 2.64954 210.724 2.73257C212.138 2.68207 213.846 2.7842 215.168 2.67355C215.137 2.72919 215.273 2.82498 215.464 2.88016C215.764 2.96399 216.105 3.04168 216.471 3.10994L219.265 3.24321C219.37 3.31174 219.5 3.38111 219.655 3.45043C219.762 3.50518 219.946 3.55875 220.171 3.59979C220.395 3.64084 220.642 3.66612 220.858 3.67029C221.414 3.6906 221.88 3.64519 222.543 3.75737C221.522 3.86342 220.145 3.84933 218.657 3.71762C217.26 3.61744 215.915 3.56738 214.674 3.56928C214.265 3.56853 213.726 3.57437 213.598 3.63497C213.315 3.80623 212.573 3.77916 211.708 3.74757C211.029 3.71299 210.408 3.71687 209.898 3.75889C209.387 3.80092 209.001 3.87989 208.771 3.98931C208.712 4.09501 208.852 4.18524 209.448 4.24675L211.928 4.4934C212.293 4.46169 212.64 4.42415 212.966 4.38094C213.517 4.32356 214.196 4.3078 214.952 4.33491C215.707 4.36202 216.519 4.43127 217.323 4.53725C217.734 4.59199 218.145 4.64673 218.443 4.62072C218.705 4.59084 218.945 4.55507 219.164 4.51367C219.208 4.48592 219.226 4.45398 219.216 4.41909C219.374 4.43531 219.533 4.45641 219.686 4.48165C220.91 4.77609 221.858 4.77099 222.719 4.69462C222.953 4.67192 223.13 4.63583 223.366 4.60757C223.602 4.5793 223.686 4.54262 223.9 4.5533C225.612 4.64986 226.104 4.32733 227.547 4.34028C227.617 4.32769 227.661 4.30885 227.674 4.28551C227.687 4.26218 227.668 4.2351 227.62 4.20676C227.519 4.18117 227.401 4.15917 227.278 4.14277C227.154 4.12637 227.03 4.11611 226.916 4.11292C226.252 4.07153 225.666 4.08422 225.257 4.14882C224.968 4.17522 224.662 4.19626 224.34 4.21181L222.896 3.74474C224.295 3.78756 225.619 3.78728 226.836 3.74391C227.101 3.71955 227.551 3.76151 227.924 3.76949L230.673 3.81314C231.239 3.81676 231.72 3.74354 232.508 3.91422C232.508 3.91422 233.029 3.94175 233.168 3.91844C233.307 3.89514 233.922 3.75019 234.289 3.65577C234.716 3.68269 235.306 3.75533 235.571 3.73098C236.035 3.67116 236.437 3.59447 236.769 3.50229L238.429 3.63388C238.427 3.75078 238.367 3.86075 238.248 3.96213C238.119 4.0599 238.123 4.17726 238.261 4.30461C238.399 4.43197 238.667 4.5657 239.042 4.69489L240.682 5.37909C240.949 5.42491 241.234 5.45575 241.499 5.46743C241.763 5.47911 241.993 5.47106 242.158 5.44437C242.864 5.36514 243.654 5.3032 244.359 5.22397C245.269 5.34518 245.035 5.54096 245.697 5.71269L247.84 5.99812C248.167 6.26262 248.5 6.516 247.506 6.60454C247.308 6.62003 247.441 6.72138 247.261 6.76303C248.034 6.96153 248.883 7.02095 249.667 7.14321C249.976 7.23114 250.234 7.32421 250.429 7.41793C250.644 7.55906 251.078 7.70322 251.639 7.81928C252.2 7.93534 252.843 8.01399 253.428 8.03825C254.409 8.11256 255.414 8.22416 256.397 8.36806C256.733 8.4181 257.078 8.45455 257.409 8.47497C257.74 8.49539 258.05 8.4993 258.317 8.48643C259.268 8.46377 260.073 8.38586 260.68 8.25776C261.28 8.14905 262.089 8.09665 263.033 8.10532C264.648 8.32038 264.973 8.64443 265.95 8.92984L264.263 8.96184C264.201 9.07311 264.313 9.21341 263.621 9.21084C262.929 9.20827 263.28 9.31474 263.505 9.42225C263.584 9.47634 263.738 9.53197 263.941 9.57974C264.145 9.6275 264.385 9.66446 264.621 9.68436L266.057 9.82198C266.567 9.87435 267.06 9.89671 267.482 9.88661C267.905 9.87651 268.24 9.83434 268.452 9.76473C268.695 9.69862 269.031 9.65391 269.438 9.63333C269.958 9.5794 270.385 9.4992 270.704 9.39576L272.732 9.54646C272.818 9.44252 273.097 9.36964 273.521 9.34014C273.945 9.31063 274.488 9.32632 275.058 9.38455L276.425 9.47706C277.945 9.57798 278.279 9.54476 278.724 9.2517L276.901 8.72823C277.166 8.59035 277.422 8.46915 277.678 8.34796C277.224 8.17551 276.618 8.01239 275.922 7.87518C275.272 7.72775 274.604 7.58496 273.92 7.44736C273.178 7.30675 272.395 7.18449 271.474 7.02598C271.313 6.9747 271.08 6.88387 270.781 6.79636C270.483 6.71131 270.171 6.62794 269.848 6.54658C269.909 6.43531 269.964 6.33517 269.846 6.206C270.413 6.24721 270.999 6.3193 271.551 6.41575C272.103 6.51221 272.604 6.63 273.008 6.7585C273.076 6.78129 273.159 6.8027 273.252 6.82128C273.345 6.83985 273.446 6.85517 273.547 6.86618C274.544 6.94514 275.02 7.11009 275.507 7.31235C275.835 7.41573 276.258 7.50755 276.717 7.57506C277.598 7.69236 278.46 7.84304 279.302 7.97313C279.56 8.01647 279.828 8.05215 280.095 8.07869C280.975 8.16308 281.861 8.28108 282.708 8.42669C282.984 8.4637 283.249 8.51268 283.481 8.56952C283.713 8.62637 283.904 8.68943 284.04 8.75346C283.831 8.8236 283.717 8.91214 283.708 9.01374C283.671 9.0805 284.289 9.2166 284.581 9.31525C284.874 9.4139 284.301 9.36742 284.106 9.37733C283.308 9.39642 283.16 9.43641 283.638 9.65535C283.797 9.7242 283.903 9.79309 283.949 9.85773C283.995 9.92237 283.979 9.9814 283.903 10.0311C283.79 10.237 283.445 10.406 283.208 10.6073C283.576 10.74 284.191 10.8816 284.258 11.0458C284.29 11.0822 284.358 11.1208 284.457 11.1588C284.556 11.1968 284.684 11.2332 284.83 11.2654C285.217 11.3349 285.568 11.418 285.857 11.5082C286.146 11.5985 286.365 11.6936 286.497 11.786C286.54 11.8242 286.644 11.8647 286.789 11.8995C286.933 11.9342 287.107 11.9606 287.276 11.9733C287.477 11.989 287.658 11.9869 287.78 11.9676C287.902 11.9483 287.956 11.9132 287.932 11.8696C287.937 11.7877 287.91 11.7023 287.852 11.6141C287.886 11.5529 287.92 11.4917 287.786 11.3904C288.388 11.4274 289.02 11.5015 289.613 11.6047C290.206 11.7079 290.738 11.8363 291.15 11.9758C291.607 12.1202 292.027 12.2718 292.533 12.4406C292.429 12.6298 292.429 12.6298 293.505 12.9642L299.213 13.1273L300.383 13.3488C301.474 13.5419 301.733 13.5287 302.418 13.4289L302.88 13.335C303.848 13.4641 304.964 13.6126 305.57 13.3709C305.767 13.5285 305.895 13.5814 305.85 13.6053C305.561 13.8378 305.059 14.0352 304.363 14.1894C304.185 14.2255 304.06 14.2806 303.853 14.3127C303.187 14.4943 303.032 14.775 303.421 15.0972C303.614 15.2398 303.895 15.3858 304.254 15.5306C303.728 15.7314 303.033 15.8979 302.185 16.0254C301.465 16.1241 300.873 16.2562 300.424 16.418C300.022 16.5811 299.419 16.7037 298.65 16.7788C298.26 16.8108 297.976 16.8737 297.825 16.9615C297.78 17.1991 297.883 17.4536 298.132 17.7191C298.179 17.7999 298.312 17.8872 298.521 17.9741C298.73 18.061 299.009 18.1451 299.337 18.22C299.337 18.22 299.495 18.2768 299.57 18.3108C299.634 18.5985 299.397 18.8521 298.877 19.0545C298.792 19.1119 298.617 19.1534 298.373 19.1745C298.128 19.1955 297.822 19.1954 297.488 19.174C296.782 19.1397 296.122 19.1355 295.44 19.1162C294.704 19.089 294.056 19.1105 293.564 19.1784C293.072 19.2463 292.754 19.3582 292.643 19.5022C292.636 19.543 292.614 19.582 292.579 19.619C292.558 19.6381 292.547 19.6586 292.545 19.6802L294.113 20.1518L292.339 20.3396C292.235 20.5287 293.086 20.6421 293.513 20.7826L293.249 20.8609C292.91 20.9053 292.452 20.8205 292.038 20.7713L291.627 20.7165L291.578 20.8056C291.322 20.9267 290.389 20.7905 290.025 20.8794C289.661 20.9682 289.921 21.0685 290.466 21.1651C290.846 21.2368 291.253 21.2941 291.657 21.3324C292.062 21.3708 292.453 21.3893 292.802 21.3866C293.01 21.3771 293.183 21.3554 293.31 21.3229C294.046 21.1842 294.859 21.0651 295.744 20.9662C296.422 20.8774 297.271 20.8397 298.231 20.8556C298.513 20.8489 298.853 20.8699 299.191 20.915C299.529 20.96 299.844 21.0262 300.08 21.1019L300.578 21.1144C300.578 21.1144 300.85 21.1925 300.811 21.2052C300.622 21.4365 300.842 21.7191 301.438 22.0114L300.92 22.0378C300.178 22.0108 300.648 22.1868 300.538 22.2736C300.011 22.2572 299.327 22.184 299.077 22.294L298.703 22.2861L298.85 22.3056L299.027 22.2695L299.725 22.434C299.394 22.4617 299.155 22.4955 298.863 22.5104C298.702 22.5233 298.574 22.5462 298.486 22.5776C298.398 22.6091 298.353 22.6484 298.353 22.6932C298.353 22.7623 298.267 22.8204 298.1 22.862C297.934 22.9036 297.694 22.9273 297.402 22.931C297.055 22.9324 296.856 23.0075 296.652 23.0341L297.537 23.4864C297.537 23.4864 297.097 23.4278 297.337 23.5075L297.367 23.4518L297.904 23.5651C298.29 23.6643 298.561 23.6884 298.789 23.6173C299.017 23.5461 298.965 23.6407 299.075 23.6135C299.035 23.6858 298.786 23.7364 298.573 23.7797C298.327 23.8137 298.049 23.8387 297.744 23.8544C298.294 24.1724 298.32 24.1819 297.517 24.2661C296.715 24.3503 296.992 24.4767 296.32 24.4948C295.648 24.5128 296.412 24.728 296.862 24.77C297.195 24.7975 297.535 24.8405 297.858 24.8959C298.181 24.9513 298.479 25.0178 298.733 25.0909L298.598 25.3357C298.4 25.3154 298.202 25.289 298.011 25.2575C297.36 25.123 296.768 24.9964 296.19 25.0746L296.465 25.2606L294.445 25.1527C294.497 25.2921 294.805 25.4509 295.304 25.5956C295.229 25.6751 295.183 25.7587 295.166 25.846C295.132 25.9072 294.933 25.8686 294.803 25.8753C294.34 25.8855 293.961 25.927 293.697 25.996C293.434 26.0651 293.295 26.1596 293.293 26.2713C293.241 26.3659 293.952 26.5621 294.397 26.5557C295.507 26.5745 296.708 26.6473 297.934 26.77C298.681 26.786 298.787 26.5373 300.017 26.707C300.041 26.8219 299.884 26.9148 299.568 26.9719C299.252 27.029 298.795 27.0471 298.267 27.0234C298.567 27.2784 300.232 27.3449 300.306 27.6115C299.891 27.5927 299.448 27.5484 299.02 27.483C298.592 27.4175 298.193 27.3333 297.865 27.2386C297.794 27.2152 297.704 27.1937 297.605 27.176C297.506 27.1583 297.401 27.1449 297.298 27.1372C297.196 27.1295 297.099 27.1277 297.019 27.1319C296.938 27.1361 296.875 27.1462 296.836 27.1612C297.066 27.2576 297.32 27.3691 297.609 27.4733C297.898 27.5775 297.968 27.6226 298.177 27.6444C299.732 27.8516 300.472 28.2249 301.818 28.4698C302.17 28.5168 302.214 28.6659 301.908 28.6491C301.617 28.6322 301.354 28.6344 301.148 28.6554C300.941 28.6765 300.8 28.7155 300.74 28.7681C300.514 28.8295 300.233 28.8784 299.904 28.9135C301.284 29.2965 302.93 29.635 304.687 29.897C305.02 29.9488 305.367 29.9804 305.677 29.9871C306.658 29.9875 307.699 30.0179 308.778 30.0777C309.161 30.094 309.515 30.0925 309.821 30.0732C310.823 30.0275 311.618 30.1275 312.345 30.4094L313.548 30.8564C313.509 30.9287 313.307 31.0093 313.151 31.1199L314.091 31.3586L321.263 30.809L322.703 31.3411L324.768 31.3116C324.926 31.3269 325.085 31.3481 325.237 31.3741C325.655 31.5313 325.981 31.6822 326.434 31.8322C326.887 31.9821 327.697 32.0003 328.261 32.177C328.825 32.3537 329.391 32.3573 330.089 32.4623C330.155 32.599 330.087 32.7221 329.89 32.8239C329.825 32.9407 329.47 33.0129 329.409 33.1242C329.416 33.2366 329.284 33.3321 329.025 33.4019C328.767 33.4718 328.39 33.5138 327.928 33.5241C326.636 33.7636 325.078 33.9341 323.301 34.0305C323.145 34.0375 323.015 34.0537 322.92 34.078C322.826 34.1024 322.768 34.1344 322.75 34.1721C322.752 34.2813 322.634 34.3756 322.403 34.4482C322.172 34.5208 321.835 34.5698 321.416 34.5916C321.304 34.596 321.22 34.6097 321.174 34.631C321.015 34.6448 320.899 34.6711 320.837 34.7074C320.776 34.7437 320.771 34.7888 320.823 34.8384C320.875 34.8879 320.982 34.9402 321.134 34.9902C321.286 35.0402 321.477 35.0862 321.69 35.1238C321.998 35.1843 322.314 35.2422 322.634 35.2973C322.616 35.3307 322.298 35.3361 322.344 35.3662C322.47 35.4622 322.499 35.5521 322.429 35.6289C322.359 35.7056 322.193 35.7671 321.943 35.8084L323.657 36.5861C324.697 36.6939 325.718 36.8766 326.525 37.0995C326.526 37.1361 326.48 37.1667 326.39 37.1883C326.301 37.21 326.172 37.2219 326.016 37.2228C325.598 37.2388 325.202 37.2697 324.751 37.2873C324.476 37.3005 324.247 37.3294 324.077 37.3724C323.907 37.4154 323.8 37.4716 323.763 37.5378L324.769 37.8271C324.447 37.8977 324.207 37.9315 323.994 37.9748C324.115 38.0657 324.323 38.1598 324.601 38.2496C324.879 38.3395 325.221 38.4228 325.599 38.4931C325.701 38.5076 325.804 38.5182 325.904 38.5243C326.003 38.5304 326.097 38.5318 326.179 38.5285C326.958 38.4292 327.87 38.6044 328.755 38.7702C329.641 38.9359 330.122 39.0357 330.775 39.1646L332.026 39.1819C332.343 39.2429 332.625 39.3147 332.851 39.3914C333.077 39.4682 333.24 39.5478 333.327 39.6239C333.259 39.7463 332.666 39.6792 332.312 39.6918C331.474 39.768 330.371 39.7518 329.187 39.6458C328.893 39.6067 328.592 39.6382 328.307 39.642C327.69 39.6572 327.098 39.682 326.533 39.7162C326.16 39.7481 325.812 39.7875 325.491 39.8343C325.405 39.99 326.756 40.1104 325.989 40.1873C326.254 40.2225 326.352 40.2715 326.488 40.2538C327.359 40.355 328.216 40.405 328.961 40.398C330.391 40.3766 332.015 40.4475 333.7 40.6052C335.518 40.7685 337.262 40.8371 338.789 40.8053C339.37 40.8034 340.02 40.8368 340.689 40.903C341.478 40.9947 342.262 41.0524 342.99 41.0722C343.231 41.0729 343.5 41.0885 343.774 41.1178C344.048 41.147 344.32 41.1891 344.568 41.2405C344.546 41.2795 344.31 41.3077 344.363 41.3267C345.116 41.6181 345.421 41.9215 346.581 42.2193C347.373 42.3249 348.283 42.4461 348.801 42.3061C349.32 42.1661 349.134 42.0458 348.103 41.6875C348.326 41.6823 348.596 41.6991 348.864 41.7348C349.133 41.7705 349.382 41.823 349.57 41.883L350.462 42.1511L351.266 42.4075C351.196 42.5354 351.141 42.6356 351.082 42.7413C350.99 42.8536 351.091 42.9902 351.371 43.1321C351.54 43.2096 351.687 43.287 351.811 43.3638C352.313 43.671 352.459 43.9612 352.231 44.2021C351.795 44.5485 351.187 44.8672 350.414 45.1545C349.599 45.4341 349.152 45.7867 348.48 46.0913C348.137 46.23 347.721 46.3543 347.235 46.463C346.314 46.7046 345.305 46.9345 344.381 47.1817C343.457 47.4289 342.414 47.6064 341.388 47.8102C339.86 48.052 338.209 48.2608 336.443 48.4355C335.35 48.5885 334.228 48.7377 333.217 48.9136C332.024 49.1119 330.621 49.2543 329.045 49.3373C327.653 49.4366 326.409 49.5834 325.338 49.7751C325.225 49.7958 325.137 49.8222 325.074 49.8534C324.881 50.0488 324.34 50.1865 323.534 50.2455C323.583 50.3027 323.646 50.3609 323.722 50.4198C323.834 50.49 323.857 50.5557 323.789 50.6083C323.72 50.661 323.564 50.6982 323.339 50.7151C322.694 50.7635 322.158 50.8457 321.755 50.9581C321.607 50.9863 321.515 51.0273 321.488 51.0777C321.46 51.1281 321.497 51.1863 321.596 51.2474C321.683 51.3103 321.69 51.3681 321.614 51.4134C321.539 51.4587 321.385 51.4894 321.172 51.5015C320.626 51.561 320.042 51.6089 319.423 51.6448C318.106 51.724 316.573 51.7231 314.919 51.642C314.742 51.6186 314.565 51.6546 314.359 51.6273C313.189 51.5364 312.103 51.5224 311.231 51.5868C310.209 51.6119 309.14 51.6069 308.062 51.6186C306.505 51.6107 305.068 51.6585 303.793 51.7606C302.335 51.6619 301.515 51.8335 300.285 51.8368C299.148 51.8544 298.071 51.8967 297.064 51.9632C295.44 52.0514 293.822 52.1285 292.221 52.2318C290.719 52.2811 289.336 52.3752 288.096 52.5125C287.62 52.5746 286.76 52.4779 286.436 52.6079C286.112 52.738 285.459 52.7227 284.931 52.7658L283.265 52.8724C282.979 52.8977 282.664 52.9138 282.325 52.9204C280.776 52.929 279.704 53.1027 278.266 53.1382L278.119 53.1186C275.567 53.3768 272.646 53.5185 269.442 53.5395C267.571 53.6187 265.525 53.6149 263.539 53.6729C263.066 53.789 261.947 53.646 261.353 53.752C260.759 53.858 259.789 53.7885 259.023 53.8059C258.257 53.8234 257.508 53.8669 256.69 53.8654C255.979 53.8659 255.379 53.9133 254.944 54.0031C253.951 54.1517 252.741 54.2391 251.367 54.2613C249.55 54.2999 247.831 54.3875 245.983 54.3682C246.009 54.4765 245.896 54.5686 245.654 54.6351C245.413 54.7016 245.052 54.74 244.608 54.7465C242.632 54.7878 240.84 54.8955 238.837 54.9273L238.301 54.9276L232.311 54.9898C230.697 55.0018 229.143 55.0216 227.496 55.0353C226.88 54.9531 226.865 55.0945 226.439 55.0676C226.32 54.9979 226.179 54.9673 225.969 55.005L225.923 55.0885L219.087 55.1992C216.411 55.2801 213.595 55.3044 210.665 55.2718C209.97 55.28 209.321 55.3076 208.729 55.3543C208.18 55.3714 207.608 55.3789 207.015 55.3769C206.214 55.3558 205.431 55.3452 204.669 55.3451C202.667 55.3769 200.565 55.3598 198.372 55.3364C196.179 55.3131 194.518 55.3545 192.566 55.3514C191.244 55.3485 189.928 55.3345 188.56 55.3015C187.906 55.2862 187.102 55.2028 186.425 55.1725C185.749 55.1421 185.528 55.1425 185.438 55.1903C185.144 55.3243 184.404 55.2377 183.812 55.2246C182.659 55.2023 182.495 55.1566 182.182 54.8103L183.597 54.7003C183.944 54.6647 184.38 54.6585 184.864 54.6821C185.348 54.7058 185.863 54.7585 186.359 54.8352C186.554 54.8681 186.758 54.894 186.96 54.9116C187.161 54.9292 187.355 54.938 187.531 54.9376C188.96 54.9188 190.368 54.8795 191.741 54.8473L191.941 54.8263L191.954 54.5174C191.772 54.4871 191.584 54.462 191.396 54.4431L184.511 54.2427C182.931 54.1935 181.291 54.0825 179.74 54.0372C178.19 53.9919 177.354 53.9643 176.151 53.9175C175.643 53.8908 175.125 53.8558 174.602 53.8126C174.632 53.7829 174.649 53.7513 174.654 53.7181C174.681 53.668 174.718 53.6012 174.495 53.5477C174.253 53.4721 173.928 53.4076 173.587 53.3669C173.266 53.3401 172.955 53.3249 172.666 53.322C171.27 53.2961 169.675 53.1329 168.222 52.8673L167.714 53.0446C165.532 52.945 163.317 52.8471 161.037 52.7525C160.581 52.7267 160.102 52.6772 159.636 52.6076C159.137 52.5412 158.678 52.4024 158.153 52.3264C157.634 52.2718 157.118 52.2292 156.616 52.1993C156.752 52.1537 156.931 52.1173 157.148 52.0911C157.362 52.0819 157.517 52.0534 157.592 52.0097C157.667 51.966 157.658 51.9094 157.565 51.8481C157.403 51.7428 157.331 51.6438 157.685 51.6311C158.012 51.6071 158.245 51.5552 158.359 51.4814C158.472 51.4076 158.46 51.315 158.324 51.2146C158.265 51.1559 158.223 51.0985 158.198 51.0426L158.052 51.023C157.567 50.8152 156.601 50.7402 155.906 50.5701C155.579 50.5208 155.24 50.4924 154.943 50.4895C154.175 50.4529 153.427 50.437 152.634 50.391C152.254 50.3698 151.858 50.3312 151.467 50.2774C150.909 50.2031 150.851 50.1953 150.527 49.9252C151.03 49.93 151.428 49.8896 151.655 49.811C151.883 49.7324 151.924 49.6205 151.773 49.494C151.358 49.2178 150.92 48.9265 149.043 48.7302C149.655 48.7206 150.244 48.7013 150.807 48.6727C150.971 48.6665 151.094 48.6462 151.159 48.6145C151.224 48.5828 151.229 48.5412 151.172 48.4953C151.115 48.4494 150.999 48.4014 150.841 48.3576C150.682 48.3139 150.488 48.2766 150.284 48.2506C149.293 48.0943 148.26 47.9897 147.299 47.9486C146.49 47.9304 145.76 47.9406 144.814 47.9401L143.699 47.7916C143.717 47.7582 143.553 47.7125 143.595 47.6941C143.879 47.5229 144.191 47.3555 144.513 47.1714C143.999 47.0721 143.553 46.9521 143.228 46.8253C142.902 46.6984 142.709 46.5699 142.671 46.4543C142.643 46.4195 142.651 46.3877 142.693 46.3613C142.734 46.3348 142.81 46.3144 142.913 46.3014C143.207 46.279 143.433 46.2364 143.576 46.1766C143.718 46.1169 143.772 46.0416 143.733 45.9568L142.866 45.6441C140.254 45.4211 137.689 45.2617 135.218 45.169L132.988 45.0989C132.719 45.0153 132.802 44.9786 133.056 44.9765C133.309 44.9744 134.021 44.9976 134.518 45.0101C134.948 45.0264 135.329 45.0157 135.625 44.9788C135.922 44.9419 136.123 44.8801 136.21 44.7994L135.461 44.4429C135.498 44.3761 135.55 44.2815 135.956 44.2879C136.233 44.2801 136.438 44.2465 136.536 44.1925C136.635 44.1384 136.621 44.067 136.498 43.9898C136.48 43.934 136.508 43.8832 136.581 43.8396C137.182 43.836 137.779 43.838 138.324 43.821C138.578 43.8154 138.793 43.7947 138.953 43.7604C139.113 43.7261 139.216 43.679 139.253 43.6222C139.273 43.5668 139.225 43.5038 139.113 43.4381C139.002 43.3724 138.83 43.3059 138.611 43.244C137.757 43.1675 136.975 43.1665 136.438 43.2413C136.247 43.2999 135.939 43.3319 135.556 43.3331C135.173 43.3343 134.732 43.3047 134.292 43.248C133.788 43.1827 133.285 43.1541 132.873 43.1671C132.462 43.1802 132.169 43.2341 132.047 43.3193C131.529 43.2862 131.071 43.2609 130.618 43.2245C130.084 43.1786 129.579 43.1651 129.158 43.1854C128.485 43.1998 127.759 43.1914 126.998 43.1604C124.803 43.0831 122.606 43.0113 120.481 42.9791C119.918 42.9699 119.432 42.9947 118.876 42.9744C118.32 42.9541 117.88 43.009 117.185 42.8984C117.052 42.8813 116.919 42.8702 116.796 42.8662C116.672 42.8622 116.561 42.8653 116.473 42.8753C115.252 42.9627 113.82 42.975 112.262 42.9116C110.128 42.8961 107.915 42.8521 105.777 42.8422C105.151 42.8507 104.558 42.8737 104.006 42.9109C103.587 42.9333 103.147 42.9485 102.689 42.9564C102.339 42.9635 102.004 42.9427 102.063 43.064C102.122 43.1854 101.597 43.1094 101.294 43.087C100.254 43.0282 99.1907 42.9485 98.1165 42.849C97.0581 42.7407 96.0211 42.6778 95.0675 42.6638C94.3787 42.6557 93.6685 42.6865 92.783 42.5208C92.8167 42.4596 92.8504 42.3984 93.0432 42.3345C92.321 42.1586 91.4971 42.0074 90.6395 41.8931C89.7819 41.7789 88.9153 41.705 88.1113 41.6776L87.0028 41.3448C86.7298 41.3057 86.4512 41.2773 86.1838 41.2611C85.9164 41.245 85.6658 41.2416 85.4473 41.2511C85.2785 41.2559 85.0727 41.2435 84.8678 41.2162C84.6629 41.189 84.4726 41.1486 84.3318 41.1025C84.1213 41.0439 83.8642 40.9934 83.5926 40.9572C83.3211 40.921 83.0472 40.9008 82.8053 40.8992C82.0436 40.863 81.2305 40.7794 80.4494 40.657C80.2466 40.5853 80.1196 40.5112 80.0839 40.4438C80.0483 40.3765 80.1056 40.3188 80.2487 40.278C80.4795 40.2059 80.609 40.114 80.6296 40.0079C80.6501 39.9018 80.5612 39.7838 80.3682 39.6609C80.2694 39.5854 80.2363 39.514 80.2711 39.4509C80.3059 39.3878 80.4077 39.3343 80.5705 39.2937C81.1782 39.1059 81.0156 39.0006 80.0214 38.689C79.86 38.6371 79.6653 38.5885 79.4498 38.5465C79.2343 38.5044 79.0027 38.4697 78.7696 38.4447C78.2229 38.3939 77.6836 38.3561 77.1616 38.332C76.8681 38.2929 76.567 38.3245 76.2288 38.3093C74.5375 38.2333 74.29 38.1108 73.7423 37.8467L73.3431 37.6562C72.6028 37.5019 71.7931 37.3737 70.9724 37.2809C70.1517 37.1881 69.3405 37.133 68.5971 37.1196C68.3016 37.1186 67.9619 37.0922 67.6301 37.0446C66.5501 36.8988 65.4565 36.7979 64.4215 36.7486C63.7766 36.7208 63.0814 36.649 62.4194 36.5418C61.7574 36.4345 61.1568 36.2964 60.6897 36.144C60.2702 36.0068 59.7212 35.8835 59.1194 35.7915C58.4148 35.6977 58.3496 35.5875 58.743 35.5025C59.1365 35.4176 59.7954 35.3083 60.3803 35.219C60.5838 35.1886 60.7099 35.1393 60.7446 35.0764C60.7792 35.0135 60.7211 34.9396 60.5765 34.8629C60.4838 34.7316 60.4676 34.6071 60.5287 34.4922C60.5613 34.4445 60.5388 34.3898 60.4627 34.3318C60.3865 34.2738 60.2586 34.2138 60.0874 34.1559C59.9163 34.098 59.7059 34.0436 59.4705 33.9962C59.235 33.9489 58.98 33.9097 58.7226 33.8814C57.6364 33.7368 56.5796 33.596 55.4719 33.4903C55.0077 33.4404 54.544 33.3787 54.0922 33.3065C53.1672 33.128 52.1777 32.9799 51.1811 32.871C50.7081 32.8223 50.2456 32.7371 49.8938 32.6338C48.7842 32.3557 47.7618 32.0633 46.845 31.7619C46.6241 31.6685 46.335 31.5773 45.9958 31.4941C45.6567 31.4109 45.2748 31.3375 44.8742 31.2785C44.5513 31.2355 44.2884 31.1407 44.0396 31.0777C43.8587 30.9318 43.8394 30.7968 43.9834 30.6854C44.1275 30.5741 44.4302 30.4899 44.8631 30.4409C45.2737 30.3821 45.6579 30.3139 46.0127 30.2417C46.4405 30.1833 46.9491 30.1483 47.5196 30.1378C48.1951 30.1065 48.6947 30.017 48.9531 29.8809C47.1037 29.6346 45.3449 29.2809 43.7238 29.3635L42.4921 29.1398C42.5412 29.0507 42.5841 28.9728 42.6239 28.9005C42.9169 28.7689 43.0084 28.6028 42.8907 28.4165C42.7936 28.3263 42.8024 28.2443 42.916 28.1787C43.0297 28.1131 43.2441 28.0662 43.5378 28.0428C45.2772 27.8027 47.2886 27.6407 48.9198 27.3682C49.4312 27.3171 50.0299 27.2939 50.6907 27.2995C51.33 27.2832 51.3032 27.1602 50.5676 27.0084C50.1547 26.9291 49.7338 26.8532 49.3065 26.7807C47.4225 26.7687 46.655 27.1323 44.5051 27.031L43.5086 26.5519C43.2391 26.5445 42.9775 26.5416 42.7256 26.5432L39.1207 26.7379C38.8204 26.7476 38.5866 26.7809 38.446 26.834C38.3054 26.887 38.2634 26.9577 38.325 27.038C38.3494 27.1362 38.2998 27.2263 38.1778 27.305C38.0992 27.3602 38.1495 27.4334 38.3177 27.5088C38.6967 27.6787 38.2104 27.7035 37.9033 27.7462C37.8248 27.7504 37.7342 27.75 37.6369 27.7449C37.5396 27.7399 37.4375 27.7304 37.3365 27.7169C37.2354 27.7034 37.1375 27.6863 37.0483 27.6665C36.9592 27.6467 36.8806 27.6246 36.8171 27.6016C36.276 27.4399 35.8027 27.2694 35.2708 27.091C35.6484 26.9204 35.2041 26.6402 35.7934 26.4858C35.8593 26.455 35.8856 26.4174 35.8709 26.3754C35.8561 26.3333 35.8004 26.2878 35.7074 26.2415C35.4675 26.1219 35.3532 26.0053 35.3761 25.9035C35.399 25.8017 35.5583 25.7183 35.8379 25.6616L35.8716 25.6004C35.1342 25.3947 35.3296 25.2117 35.0399 24.994L34.3306 24.8517C32.5657 24.5092 32.5626 24.5147 31.0431 24.5273C30.7368 24.397 31.126 24.3771 31.4178 24.3622L33.8617 24.216C35.4596 24.1183 37.1039 24.0506 38.8889 24.0137C40.6739 23.9767 42.6639 23.8536 44.5088 23.7649C44.6021 23.758 44.6735 23.7444 44.7169 23.7253C44.7604 23.7062 44.7746 23.682 44.7586 23.6548C44.6852 23.6255 44.5892 23.5971 44.4777 23.5719C44.3661 23.5467 44.2418 23.5253 44.114 23.5093C43.5269 23.4311 42.9245 23.3807 42.2988 23.3153L41.1324 23.2017L40.7736 23.0524C40.54 22.9616 40.3805 22.8507 40.0698 22.7855C39.8138 22.7368 39.5359 22.6998 39.265 22.6785C38.9942 22.6571 38.7403 22.6521 38.5298 22.664C37.9462 22.6937 37.4182 22.7369 36.8609 22.7761C36.3036 22.8153 35.9965 22.858 35.5132 22.8773C34.5313 22.886 33.5824 22.9092 32.6706 22.9466C31.9026 23.035 31.1922 23.1399 30.5439 23.2605C30.1395 23.3081 29.7614 23.3653 29.0708 23.3032C28.7432 23.2468 28.4607 23.1728 28.2732 23.0943C28.0858 23.0158 28.0056 22.9378 28.0468 22.8741C28.0839 22.8243 28.1888 22.7848 28.3516 22.7595C28.5144 22.7341 28.7298 22.7238 28.9774 22.7294C29.6705 22.7202 30.3115 22.6893 30.8873 22.6374C31.6888 22.5433 32.6646 22.5027 33.7575 22.518C34.1282 22.5316 34.3766 22.481 34.7008 22.4645C35.0251 22.448 35.2997 22.4069 35.6612 22.4372C36.7842 22.5151 37.3226 22.3957 37.9956 22.3181C38.2234 22.2837 38.3646 22.2281 38.4035 22.1574C38.4425 22.0868 38.3777 22.0037 38.2164 21.9175C37.9058 21.7458 37.5258 21.5731 37.0824 21.4022C36.8542 21.3182 36.5619 21.2384 36.2283 21.1691C35.8947 21.0998 35.5289 21.0429 35.1597 21.0028C34.9387 20.8976 34.8209 20.7942 34.8167 20.7019C34.8126 20.6096 34.9224 20.5313 35.136 20.4741C35.6806 20.3436 36.1634 20.2108 37.3837 20.2838C37.9574 20.3116 38.4973 20.317 38.9819 20.2996C40.057 20.2758 41.2971 20.3279 42.5853 20.4511C42.9186 20.4826 43.2462 20.5041 43.5584 20.515C45.7855 20.5907 47.9074 20.6284 50.0354 20.6551C51.1628 20.6679 52.2993 20.664 53.4762 20.7013C56.2361 20.7822 58.7483 20.7406 61.4122 20.767C62.8074 20.7806 64.0562 20.726 65.0931 20.6063C65.295 20.5662 65.4684 20.5193 65.6113 20.4663C64.9242 20.3272 64.1695 20.2171 63.4194 20.1465C62.6693 20.0758 61.949 20.0471 61.3276 20.063C60.986 20.1019 60.5443 20.109 60.0521 20.0835C59.5598 20.058 59.0362 20.0009 58.5397 19.9186L59.9834 19.872C60.9407 19.8502 61.9212 19.8434 62.8523 19.8122C64.3314 19.7584 65.7023 19.6722 67.2341 19.6374C68.4707 19.6053 69.5773 19.5234 70.5192 19.3941C71.1996 19.2999 71.9768 19.233 72.8348 19.1949C73.4447 19.1747 73.4447 19.1747 73.8346 18.9817C73.5252 18.8569 73.1252 18.8395 72.7484 18.8371C70.4894 18.7585 68.3396 18.7448 66.3427 18.7961C65.3353 18.8006 64.4415 18.8535 63.7043 18.9522C63.5238 18.9939 63.062 18.9742 62.6913 18.9606C61.5293 18.9401 60.4187 18.946 59.3729 18.9785C57.9269 19.0326 56.3164 19.0198 54.6041 18.9405C54.2794 18.8435 54.6531 18.8515 54.6715 18.8181C55.9978 18.7559 57.2977 18.6842 58.6503 18.6314C59.02 18.6126 59.4152 18.6033 59.8315 18.6036C61.3855 18.6363 62.6805 18.5457 63.5351 18.3445C63.578 18.2666 64.1401 18.2758 64.3885 18.2252C64.5108 18.1815 64.5921 18.13 64.6303 18.0723C64.2684 17.9285 63.8592 17.9278 63.5442 17.9276C62.63 17.9437 61.7506 17.9741 60.9101 18.0187C60.1288 18.0612 59.264 18.0726 58.3391 18.0525C57.6564 18.0332 57.0729 18.063 56.3841 18.0549C56.0105 18.0378 55.6237 18.0103 55.2318 17.9731C55.6682 17.8729 56.2615 17.8112 56.9699 17.7925C57.507 17.7327 58.1787 17.7146 58.2645 17.5589C58.0108 17.4474 57.7282 17.4456 57.5012 17.4572C57.0288 17.4568 56.5725 17.4638 56.1347 17.4782C55.2063 17.5099 54.2012 17.5103 53.1404 17.4795C52.5818 17.468 52.0518 17.4715 51.5592 17.4899C50.4428 17.5144 49.3729 17.5689 48.3507 17.594C46.2568 17.6197 44.347 17.7117 42.3351 17.7602C41.8873 17.7723 41.4859 17.8143 40.8957 17.7417C40.3056 17.6691 40.2793 17.6596 40.2096 17.6145C40.0445 17.5392 39.9944 17.4663 40.0699 17.4107C40.1869 17.3589 40.415 17.33 40.7134 17.3292C42.5119 17.2467 44.2178 17.1309 45.8204 16.9823C46.5257 16.9525 47.1436 16.8918 47.6526 16.8023C48.0564 16.7407 48.5353 16.6999 49.0744 16.6811C49.8584 16.6366 50.6758 16.6039 51.5231 16.5833C51.9174 16.5722 52.2526 16.5392 52.5092 16.4862C52.7657 16.4332 52.9382 16.3612 53.0167 16.2746L51.9779 15.987C51.8146 15.9736 51.6527 15.962 51.4928 15.9522L42.8706 16.1594L42.0167 16.1651C41.0809 16.148 40.8521 16.1056 39.9644 15.7723C41.9904 15.6939 43.583 15.4654 44.5836 15.1096C44.3432 15.0713 44.0966 15.0385 43.8497 15.0118C42.2306 14.9277 40.7001 14.9053 39.3171 14.9456C38.4956 14.9496 37.6509 14.9387 36.8031 14.9332C37.051 14.7692 38.0009 14.8181 38.62 14.7811C40.0992 14.7232 41.4073 14.6037 42.5023 14.4263C42.8799 14.3571 43.3522 14.3129 43.8978 14.2956C44.4437 14.2897 44.8997 14.2478 45.2261 14.1737C45.5526 14.0996 45.7395 13.9954 45.7707 13.8703C45.8221 13.757 45.933 13.6517 46.1015 13.556C45.8033 13.4202 45.3298 13.2902 44.7699 13.1903C44.2099 13.0905 43.6021 13.0276 43.0603 13.0136C41.9037 12.9577 40.7041 12.8662 39.492 12.7414C38.8882 12.6784 38.2962 12.6423 37.7543 12.6353C37.2765 12.63 36.7333 12.5845 36.2077 12.5059C35.6821 12.4272 35.2029 12.3198 34.8432 12.1998C34.3577 12.0515 33.9046 11.9016 33.4516 11.7517C32.9985 11.6018 32.4728 11.4123 31.9439 11.2284C31.4776 11.1996 31.0235 11.1811 30.5878 11.1732C30.2489 11.1799 29.8533 11.1599 29.4479 11.1154C29.0425 11.0709 28.6441 11.0039 28.2998 10.9222C28.5017 10.8416 28.73 10.7705 28.9706 10.6771C28.6404 10.5538 28.401 10.428 28.267 10.3075C28.133 10.187 28.1071 10.0742 28.191 9.97606C28.2401 9.88704 27.8812 9.73772 27.7571 9.61967C27.5975 9.51791 27.5675 9.42295 27.6711 9.34723C27.7747 9.27151 28.007 9.21857 28.3376 9.19535C28.7477 9.1525 29.0815 9.08797 29.3252 9.0044C29.4058 8.98271 29.4468 8.953 29.4445 8.91799C29.4422 8.88298 29.3967 8.84379 29.312 8.80401C29.2274 8.76422 29.1064 8.7251 28.96 8.69023C28.8136 8.65536 28.6466 8.62586 28.4743 8.60441C27.9462 8.54361 27.4218 8.5042 26.9311 8.48845C26.0857 8.45946 25.2765 8.44126 24.5033 8.43383C23.6482 8.42264 22.697 8.35363 21.7461 8.23379C20.8947 8.1204 20.1315 8.01873 19.7152 7.80205C19.2989 7.58536 18.6334 7.59227 18.1216 7.43452C18.4091 7.29233 18.9201 7.19353 19.6029 7.1481C20.0498 7.13188 20.4228 7.08932 20.6981 7.02314C20.9733 6.95695 21.1447 6.86861 21.2012 6.76378L19.6475 6.32393C18.4066 6.11686 17.7201 6.27624 16.3794 6.19321L17.7608 6.03084C17.7886 6.01479 17.7989 5.99594 17.7915 5.9752C17.6573 5.6468 17.4439 5.57657 16.0318 5.39445L15.2392 5.28888L13.9847 5.1636C13.7838 5.0963 13.6449 5.02611 13.5818 4.96006C13.5186 4.89401 13.5335 4.83441 13.625 4.78723C13.8088 4.70787 13.8646 4.60647 13.7875 4.49236C13.6658 4.41676 13.6558 4.34708 13.7591 4.29539C13.8624 4.24369 14.0726 4.21326 14.3531 4.20938C14.577 4.20337 14.5936 4.116 14.7154 4.06653C14.8364 3.99835 15.0435 3.94603 15.3227 3.91313C15.6018 3.88024 15.9463 3.86753 16.3329 3.87589C17.4727 3.88271 18.5434 3.85712 19.5261 3.79956L19.3499 3.7761C20.3742 3.82663 21.3317 3.83276 22.1759 3.79418C23.022 3.74563 24.1078 3.77677 25.0064 3.74717C25.7379 3.75396 26.2949 3.68676 26.5591 3.55983C26.8149 3.43864 27.7447 3.46693 28.4567 3.49009C28.8784 3.50508 29.286 3.51143 29.6752 3.50907C30.1975 3.48164 30.8505 3.5075 31.5255 3.58233C31.728 3.60533 31.9275 3.6175 32.1047 3.61768C33.8205 3.64913 35.5331 3.68614 37.2257 3.70256C37.6163 3.69311 38.0745 3.71476 38.5462 3.76498C38.7445 3.78679 38.9375 3.79582 39.0992 3.79086C41.7736 3.74099 44.7915 3.86824 47.4133 3.79942C47.7311 3.78316 48.0829 3.77979 48.4588 3.78937C49.3034 3.8298 50.0369 3.80378 50.5478 3.71527C50.8235 3.66819 51.1769 3.64225 51.5856 3.6391C51.9942 3.63594 52.4491 3.65565 52.9212 3.69696C53.7069 3.75166 54.433 3.75759 55.0229 3.71413C56.1732 3.67398 57.3829 3.65747 58.6425 3.66473C59.0284 3.67176 59.3676 3.65615 59.6339 3.61913C59.9002 3.5821 60.0864 3.52465 60.1781 3.45122C59.8687 3.32641 59.5305 3.31123 59.2093 3.3222C57.9646 3.29376 56.7229 3.25975 55.5013 3.24635C54.408 3.20807 53.3589 3.19636 52.3695 3.21141C51.8782 3.22839 51.2652 3.18968 50.6642 3.10372C49.9277 2.99486 49.1691 2.94078 48.5418 2.95241C48.0768 2.9553 47.5859 2.94592 47.0762 2.92442C46.7501 2.89849 46.4157 2.85395 46.1075 2.79539C45.9852 2.76996 45.8521 2.74857 45.7167 2.7326C45.5813 2.71664 45.4467 2.70645 45.3212 2.70267C45.1958 2.69888 45.0823 2.7016 44.9882 2.71065C44.8941 2.7197 44.8214 2.73488 44.7747 2.75522C44.3029 2.92528 43.2478 2.8385 42.3443 2.81969C40.9904 2.53186 39.9828 2.70222 38.7174 2.53965C38.6173 2.52887 38.5187 2.52234 38.4276 2.52048C38.3366 2.51862 38.2549 2.52146 38.1876 2.52881C35.7389 2.62666 32.8849 2.54511 30.3138 2.5789C30.0303 2.58384 29.7012 2.56691 29.364 2.53002C27.1599 2.28588 25.0408 2.21656 23.4209 2.33564C23.2238 2.34636 22.9996 2.34682 22.7585 2.33699C21.651 2.23996 20.5919 2.20127 19.6696 2.22416C18.2241 2.21677 16.8344 2.22276 15.3657 2.20033C14.3533 2.16842 13.4652 2.20252 12.7903 2.29922C12.7688 2.33817 12.3193 2.2962 11.9749 2.29214C11.7768 2.19409 11.6051 2.10554 11.4009 2.01862C11.2184 1.91109 10.945 1.80228 10.5993 1.69956C10.2536 1.59684 9.84368 1.50263 9.39724 1.42328C8.63398 1.32162 8.55765 1.1741 9.09173 1.11983C10.4683 0.940261 12.1993 0.866768 14.1575 0.904738C15.7944 0.907771 17.4607 0.914725 19.1208 0.932796C20.0891 0.9483 21.1099 0.982738 22.0519 0.988767C22.3698 1.00202 22.6963 1.02154 23.0281 1.04713C23.4353 1.08424 23.8305 1.10445 24.1927 1.1067C25.3557 1.07545 26.6535 1.10267 28.0243 1.18706C28.5264 1.20546 29.0086 1.21167 29.4636 1.20558C30.54 1.18267 31.707 1.19953 32.9336 1.25571C33.696 1.28738 34.4353 1.30395 35.1437 1.30522C35.3939 1.30868 35.5976 1.28207 35.8386 1.30222C37.9597 1.51307 39.4616 1.36078 41.3706 1.44186C42.2984 1.46446 43.1848 1.46453 44.0174 1.44205C45.6422 1.44314 47.3123 1.46625 49.021 1.5113C51.2805 1.58532 53.3743 1.55964 55.5317 1.5902C55.9577 1.59662 56.3689 1.59553 56.7625 1.58692C58.6771 1.53004 60.7566 1.5421 62.9504 1.62281C63.4485 1.63447 63.8959 1.62021 64.2646 1.58094C64.6332 1.54167 64.9152 1.47823 65.0928 1.39458C65.168 1.33717 65.1193 1.26261 64.9561 1.18527C64.6853 1.0865 64.3796 0.989733 64.0439 0.896553L51.8323 0.583877C51.3194 0.567549 50.8193 0.558759 50.3344 0.557544C48.9082 0.554826 47.4381 0.530501 45.9315 0.48469C44.4426 0.441662 43.0204 0.449301 41.578 0.436344C41.1532 0.432004 40.7171 0.421766 40.2715 0.405655C37.2599 0.278153 34.3233 0.200276 31.4823 0.172583C30.2871 0.168652 28.9959 0.110137 27.7774 0.0911699C26.5589 0.0722042 24.8927 0.0652586 23.4472 0.0578663L18.9721 0.0590021C18.0919 0.0552285 17.2349 0.0664876 16.3809 0.0721885C15.3446 -0.334575 14.9875 -0.429915 13.6047 -0.608125C13.1317 -0.67386 12.6505 -0.713091 12.2176 -0.72122C10.8449 -0.689063 9.12253 -0.822918 7.82082 -0.805197C7.03535 -0.813938 6.36884 -0.768751 5.88953 -0.67426C5.47345 -0.600103 4.99766 -0.541424 4.46951 -0.499111C3.0227 -0.847085 2.8952 -1.07309 3.98352 -1.16103C4.27839 -1.18148 4.68454 -1.17515 4.89747 -1.21846C5.01965 -1.24483 5.18655 -1.25991 5.38488 -1.26252C5.58321 -1.26512 5.80747 -1.25519 6.0401 -1.23348C6.77427 -1.17653 7.4624 -1.16314 8.03544 -1.19465C8.57474 -1.23634 9.2358 -1.23468 9.9549 -1.18981C10.4833 -1.11943 10.9478 -1.21881 11.4047 -1.24752C11.8617 -1.27623 12.2367 -1.32781 12.9505 -1.25066C13.0812 -1.2353 13.2109 -1.22608 13.3298 -1.2237C13.4486 -1.22133 13.5535 -1.22586 13.6362 -1.23696C14.4027 -1.28665 15.3175 -1.28143 16.3062 -1.22173C17.8226 -1.16298 19.2453 -1.16078 20.5251 -1.21519C21.2911 -1.26281 21.9443 -1.34725 22.459 -1.46522C22.5993 -1.50468 22.8076 -1.52834 23.064 -1.53393C24.3516 -1.50932 25.7497 -1.41668 27.1682 -1.26199C27.7025 -1.20002 28.2362 -1.15099 28.7578 -1.11596C29.8298 -1.03815 30.8666 -0.994546 31.8375 -0.986444C33.2483 -0.985161 34.7173 -0.955222 36.2312 -0.896901C37.1655 -0.864428 38.0658 -0.852442 38.9213 -0.861074C39.8007 -0.865144 40.7396 -0.840373 41.7168 -0.787339C42.6885 -0.74412 43.5448 -0.769021 44.1826 -0.859028C44.3926 -0.90753 44.5617 -0.965123 44.6869 -1.03074C43.2641 -1.24424 41.7926 -1.35274 40.5687 -1.3344C40.1038 -1.34855 39.7178 -1.33427 39.2279 -1.41743L39.2126 -1.38961C39.1151 -1.37156 38.9681 -1.3673 38.7994 -1.37765C38.6308 -1.38799 38.4524 -1.41222 38.2982 -1.44571C38.3565 -1.55142 38.4117 -1.65156 38.4515 -1.72389C39.3841 -1.71113 40.2895 -1.71216 41.1632 -1.72699C41.8998 -1.74833 42.8996 -1.56141 43.5371 -1.63178C44.7805 -1.54379 45.5722 -1.66527 46.6873 -1.63022C47.8024 -1.59517 49.0305 -1.47936 50.1456 -1.4443C51.1186 -1.42507 52.0634 -1.42089 52.9747 -1.43178C53.2892 -1.44707 53.6518 -1.44349 54.0402 -1.42124C54.5862 -1.37939 55.0941 -1.37237 55.5056 -1.40101C55.917 -1.42964 56.2154 -1.49277 56.3667 -1.58315C56.2243 -1.66781 56.0324 -1.77697 55.8111 -1.89005C56.2182 -1.98297 56.8364 -2.02209 57.5741 -2.0016L58.6165 -2.00609C58.8927 -2.00364 59.1039 -2.02876 59.2063 -2.07625C59.3087 -2.12375 59.2946 -2.18998 59.1668 -2.26125C57.1903 -2.62006 57.1175 -2.65962 55.6668 -2.42883L53.7407 -2.53607L53.7732 -2.53772ZM79.8252 -1.55208L79.6785 -1.57162L79.8252 -1.55208ZM319.855 36.6232L319.821 36.6844L319.858 36.6177L320.181 36.6607L320.203 36.6217L319.855 36.6232ZM272.971 9.79924C272.514 9.73247 272.053 9.67109 271.591 9.61546C271.47 9.60684 271.357 9.60489 271.261 9.60978C271.165 9.61468 271.089 9.62626 271.04 9.64357C271.003 9.71033 271.261 9.75665 271.496 9.78793C271.792 9.83003 272.095 9.85679 272.372 9.86544C272.65 9.87408 272.893 9.86432 273.076 9.83713L273.341 9.81277L272.971 9.79924ZM37.881 26.0711C38.1815 26.0824 38.4665 26.0842 38.7289 26.0766C39.893 26.0226 41.0076 25.9441 42.201 25.8941C43.7069 25.767 45.4373 25.7153 47.3273 25.7408C48.0657 25.7532 48.6895 25.7121 49.1259 25.622C49.3872 25.5737 49.7244 25.5455 50.1169 25.539L55.1134 25.3924C55.4223 25.3619 55.6893 25.3192 55.9082 25.2653C55.4679 25.2067 55.1743 25.1676 54.9982 25.1441C54.6327 25.1375 54.3186 25.1554 54.0873 25.196C53.8389 25.2647 53.4189 25.2919 52.9109 25.2722C52.398 25.2558 51.8978 25.2471 51.4129 25.2458C50.4972 25.2493 49.5753 25.2638 48.6565 25.2728C48.299 25.4641 47.244 25.3773 46.3405 25.3585L45.6426 25.3671C43.3611 25.4662 41.1818 25.6026 39.1152 25.7757C38.7158 25.8049 38.3717 25.8516 38.0935 25.9143C37.9887 25.9632 37.9551 26.0241 37.9954 26.0923L37.8487 26.0728L37.881 26.0711ZM139.761 44.3587C140.315 44.3718 140.891 44.3985 141.482 44.4386C141.937 44.4796 142.381 44.5044 142.796 44.5122C145.123 44.555 147.548 44.6541 150.038 44.8079C150.364 44.8312 150.677 44.8426 150.965 44.8418L153.003 44.8027C153.645 44.7807 153.658 44.7585 153.19 44.4633C152.802 44.406 152.41 44.3538 152.016 44.3069C151.781 44.2756 151.4 44.2248 151.31 44.2726C150.766 44.4031 149.772 44.3186 148.937 44.2909C146.518 44.2196 144.024 44.1143 141.582 44.028C141.066 44.0069 140.566 43.9962 140.087 43.9961C139.79 43.9916 139.519 44 139.286 44.0207C139.218 44.0228 139.16 44.029 139.118 44.0388C139.076 44.0487 139.05 44.0619 139.041 44.0777C139.032 44.0935 139.041 44.1114 139.068 44.1304C139.094 44.1493 139.137 44.1688 139.194 44.1876C139.394 44.2533 139.624 44.3163 139.879 44.3744L139.761 44.3587ZM157.478 1.51701L159.861 1.48202C160.147 1.47826 160.389 1.43887 160.695 1.45572C162.326 1.50911 163.837 1.49424 165.162 1.41174C165.613 1.37807 166.141 1.37134 166.717 1.39191C168.48 1.45288 170.142 1.45539 171.66 1.39936C172.641 1.38812 173.559 1.35036 174.401 1.28664C174.465 1.27185 174.506 1.25176 174.519 1.22776C174.532 1.20376 174.518 1.1764 174.477 1.14755C174.467 1.12932 174.438 1.10972 174.393 1.09008C174.348 1.07045 174.287 1.05124 174.216 1.03381C174.145 1.01637 174.064 1.00111 173.98 0.989073C173.896 0.977037 173.81 0.968504 173.728 0.964078C172.664 0.877827 171.655 0.847778 170.782 0.876374C169.973 0.910587 169.102 0.920599 168.182 0.906251C167.302 0.902476 166.705 1.01404 165.617 0.928913C165.157 0.900881 164.751 0.910109 164.468 0.955053C163.899 1.02955 163.104 1.03369 162.225 0.966747C161.699 0.932865 161.196 0.918336 160.736 0.923713C159.619 0.948204 158.553 0.997205 157.518 1.04455C157.192 1.05551 156.843 1.05702 156.476 1.04905L151.296 0.956339C150.051 0.927899 148.81 0.893895 147.588 0.880492C146.589 0.851388 145.659 0.860505 144.832 0.907514C143.949 0.956925 142.987 0.976985 141.963 0.967313C140.372 0.994355 138.791 1.0047 137.06 1.00106C135.956 1.0033 134.826 0.996064 133.672 0.973791C133.088 0.945125 132.593 0.96847 132.281 1.03933C132.091 1.09767 131.645 1.05014 131.274 1.0366C129.297 0.906111 127.443 0.875191 125.841 0.945997C125.637 0.957536 125.412 0.961713 125.172 0.958456C123.63 0.956025 122.031 0.940209 120.55 0.940035C120.161 0.945536 119.794 0.960631 119.454 0.98513C119.491 1.0251 119.594 1.06842 119.744 1.1061C119.893 1.14379 120.077 1.17296 120.256 1.18754C121.657 1.2992 123.009 1.35819 124.257 1.36203C126.333 1.34781 128.508 1.37978 130.758 1.45763C132.505 1.5361 134.097 1.51958 135.417 1.40929C136.449 1.32699 137.791 1.35795 139.213 1.49686C139.822 1.56321 140.412 1.58973 140.904 1.57282C141.378 1.55064 141.921 1.55602 142.503 1.58864C143.729 1.65068 144.907 1.67946 146.016 1.67441C147.1 1.65158 148.111 1.58919 149.225 1.57026C150.338 1.55133 152.034 1.56218 153.406 1.53002C154.779 1.49787 156.136 1.49353 157.478 1.51701ZM58.7519 -1.73723C58.8777 -1.56521 59.3229 -1.45814 59.8018 -1.41227C61.4529 -1.20859 63.0852 -1.12192 64.4246 -1.16679C65.1482 -1.2294 66.1128 -1.2053 67.1288 -1.09924C68.312 -0.988986 69.4178 -0.970702 70.2515 -1.04761C70.4557 -1.06105 70.6121 -1.08945 70.7067 -1.1303C70.7251 -1.16368 70.7588 -1.22488 70.765 -1.23601C70.6774 -1.26423 70.5699 -1.29037 70.451 -1.31243C70.332 -1.33449 70.2047 -1.35187 70.0788 -1.36323L64.61 -1.56015L63.6569 -1.60348C61.9162 -1.71701 60.2575 -1.76223 58.7519 -1.73723ZM69.5092 0.985512C70.3628 1.26641 70.3658 1.26084 70.803 1.32505C72.9126 1.59178 75.0208 1.73576 76.8766 1.73987C77.2891 1.73905 77.6392 1.71194 77.8971 1.6608C78.0299 1.65387 78.1144 1.63185 78.1322 1.59954C78.15 1.56723 78.0997 1.52726 77.9922 1.48833L77.3135 1.29044C76.0808 1.20476 74.8659 1.13669 73.676 1.08663C72.2906 1.02751 71.0628 1.02522 69.6266 1.00114L69.5092 0.985512ZM139.659 43.1149C140.454 43.5015 140.457 43.4959 141.789 43.5957C142.717 43.6663 143.617 43.7078 144.462 43.7189C145.495 43.731 146.555 43.7527 147.585 43.7705C147.836 43.7828 148.05 43.7726 148.183 43.7418C148.317 43.711 148.361 43.6619 148.307 43.6039C148.172 43.541 147.96 43.4801 147.707 43.4312C147.454 43.3823 147.173 43.3481 146.911 43.3344L146.349 43.3252C145.667 43.306 144.958 43.2772 144.298 43.273C143.87 43.289 143.375 43.2766 142.85 43.2368C142.325 43.1969 141.786 43.1307 141.274 43.0433L139.659 43.1149ZM73.7562 -1.23174C73.9685 -1.16479 74.2087 -1.10066 74.4703 -1.04107C75.4833 -0.8759 76.5554 -0.782088 77.4765 -0.77803C77.912 -0.767798 78.3102 -0.804329 78.7537 -0.751243C79.5489 -0.680303 80.3196 -0.642515 81.0242 -0.639924C81.0242 -0.639924 81.2217 -0.655414 81.2866 -0.658721L81.4215 -0.903516C81.088 -0.960227 80.7401 -1.00656 80.394 -1.04037C79.2325 -1.1055 78.0911 -1.15003 76.9528 -1.20012C75.8145 -1.25021 75.4176 -1.27322 74.6732 -1.29473C74.3411 -1.28291 74.034 -1.26181 73.7562 -1.23174ZM48.6029 29.2012L50.1229 29.7023C50.6148 29.7458 51.0743 29.7537 51.4315 29.7247C51.7888 29.6958 52.0241 29.6316 52.1019 29.5418C52.2271 29.4999 52.2396 29.4377 52.1368 29.3683C52.0341 29.299 51.824 29.2278 51.5507 29.1698C51.2876 29.1011 50.9873 29.0394 50.6684 28.9887C50.3494 28.938 50.0186 28.8993 49.6965 28.8751L48.6029 29.2012ZM61.2586 26.7065C60.2644 26.6216 59.3135 26.5868 58.4786 26.605C57.9525 26.6547 57.2398 26.6388 56.4864 26.5606C55.1163 26.4047 53.7956 26.3616 52.8029 26.4402C52.8029 26.4402 52.7661 26.507 52.5978 26.5264C52.4296 26.5458 53.0969 26.5929 53.2436 26.6124C54.3202 26.6602 55.4028 26.6969 56.3387 26.7141C56.9197 26.7134 57.5343 26.7291 58.1719 26.7612C59.0491 26.8106 59.881 26.8266 60.6351 26.8086C60.6351 26.8086 60.9269 26.7937 61.2555 26.7121L61.2586 26.7065ZM167.432 0.609258C166.957 0.514894 166.442 0.438202 165.926 0.384939C165.409 0.331674 164.905 0.303222 164.45 0.301708C164.102 0.296782 163.82 0.321696 163.65 0.372511C163.479 0.423324 163.429 0.497137 163.508 0.582278C163.86 0.629198 164.33 0.691756 164.594 0.726947C165.51 0.723503 166.291 0.678256 167.432 0.609258ZM256.322 8.56113C255.941 8.48517 255.521 8.42709 255.111 8.39353C254.7 8.35997 254.315 8.35228 254 8.37133C253.838 8.3796 253.948 8.46591 253.921 8.51599C253.903 8.52734 253.903 8.54146 253.921 8.55687C253.94 8.57227 253.976 8.58841 254.025 8.60357C254.075 8.61873 254.136 8.63236 254.203 8.64304C254.27 8.65371 254.34 8.66104 254.406 8.66425C254.819 8.69698 255.21 8.70672 255.542 8.69261C255.874 8.67849 256.138 8.64098 256.31 8.58339L256.322 8.56113ZM262.278 9.64703C262.219 9.60221 262.093 9.55549 261.925 9.51544C261.756 9.47539 261.555 9.44469 261.358 9.42899C261.011 9.42688 260.696 9.43931 260.424 9.46581C260.129 9.48625 260.341 9.61603 260.74 9.69302C260.909 9.72393 261.089 9.74804 261.267 9.76343C261.445 9.77882 261.614 9.78507 261.763 9.78169C261.912 9.7783 262.035 9.76537 262.124 9.74393C262.212 9.72248 262.263 9.69312 262.272 9.65816L262.278 9.64703ZM89.2174 -0.754975C88.3288 -0.91513 87.6449 -0.87484 86.8926 -0.939211C86.1403 -1.00358 85.9549 -1.01035 86.0557 -0.907349C86.1565 -0.804346 86.6722 -0.825235 86.9951 -0.782224C87.4314 -0.725153 87.8703 -0.692382 88.2628 -0.687569C88.6553 -0.682756 88.9858 -0.706094 89.2174 -0.754975ZM274.378 26.3438C273.907 26.3078 273.446 26.2824 273.002 26.268C272.943 26.2829 272.907 26.3024 272.894 26.3253C272.881 26.3482 272.893 26.3741 272.928 26.4015C272.928 26.4015 273.229 26.4834 273.406 26.5069C274.055 26.5874 274.086 26.4722 274.378 26.3438ZM340.899 41.2654C341.217 41.3735 341.366 41.4471 341.621 41.4989C341.738 41.5169 341.859 41.53 341.975 41.5372C342.091 41.5444 342.199 41.5455 342.291 41.5405C342.403 41.5093 342.429 41.4616 342.365 41.4069C342.365 41.4069 342.04 41.3099 341.916 41.3054C341.564 41.2825 341.222 41.2691 340.899 41.2654ZM74.0926 -1.67066C73.4174 -1.76059 72.7715 -1.84662 72.304 -1.74167C73.3762 -1.62873 73.3762 -1.62872 74.0926 -1.67066ZM85.0283 -0.644072C84.3465 -0.836405 83.9465 -0.853859 83.6192 -0.831759C83.5496 -0.826193 83.5036 -0.813788 83.4881 -0.796426C83.4725 -0.779065 83.4883 -0.75769 83.5331 -0.735533C83.5778 -0.713377 83.6491 -0.691647 83.7361 -0.673631C83.8231 -0.655611 83.9211 -0.642286 84.0153 -0.635671C84.3708 -0.630135 84.71 -0.632945 85.0283 -0.644072ZM120.118 -0.562743C120.133 -0.590561 120.152 -0.623943 119.976 -0.647403C119.93 -0.659313 119.876 -0.669555 119.819 -0.677104C119.762 -0.684654 119.705 -0.68924 119.653 -0.690408C119.653 -0.690408 119.634 -0.657025 119.622 -0.634771L120.118 -0.562743ZM144.485 45.621L144.093 45.6464L144.269 45.6699L144.734 45.684L144.485 45.621ZM282.558 9.21296C282.411 9.19341 282.264 9.17386 282.243 9.21281C282.212 9.21883 282.193 9.22754 282.187 9.23819C282.181 9.24883 282.189 9.26111 282.209 9.274C282.209 9.274 282.415 9.30137 282.503 9.31311L282.558 9.21296ZM259.698 9.52444C259.602 9.52221 259.515 9.52482 259.442 9.53211L259.424 9.56549L259.717 9.60459L259.698 9.52444ZM60.4833 17.4781C60.3699 17.4579 60.2497 17.4419 60.131 17.4312L59.9842 17.4117C59.9842 17.4117 60.1419 17.4685 60.23 17.4802C60.318 17.492 60.3891 17.4775 60.4833 17.4781Z" fill="#81A7CA"/>
</g>
</svg>
