<svg width="47" height="48" viewBox="0 0 47 48" fill="none" xmlns="http://www.w3.org/2000/svg">
<rect width="47" height="48" rx="13" fill="#80BFD6"/>
<path d="M15.9649 18.9064L15.9 18.9307V19V24H15.9L15.9 24.0025C15.9577 26.3365 16.7786 28.5872 18.2371 30.4103C19.6956 32.2334 21.7113 33.5284 23.9756 34.097L24 34.1031L24.0244 34.097C26.2887 33.5284 28.3044 32.2334 29.7629 30.4103C31.2214 28.5872 32.0423 26.3365 32.1 24.0025L32.1 24.0025V24V19V18.9307L32.0351 18.9064L24.0351 15.9064L24 15.8932L23.9649 15.9064L15.9649 18.9064ZM24 35.8975C18.4953 34.6631 14.1 29.4644 14.1 24V18.0677L24 14.1077L33.9 18.0677V24C33.9 29.4664 29.5047 34.6631 24 35.8975Z" fill="white" stroke="#80BFD6" stroke-width="0.2"/>
<path d="M26.4 21.5C26.4 22.8255 25.3255 23.9 24 23.9C22.6745 23.9 21.6 22.8255 21.6 21.5C21.6 20.1745 22.6745 19.1 24 19.1C25.3255 19.1 26.4 20.1745 26.4 21.5Z" fill="white" stroke="#80BFD6" stroke-width="0.2"/>
<path d="M21.1454 30.091C20.2897 29.5775 19.5844 28.8477 19.1006 27.9753C19.1271 27.1005 19.9051 26.3842 20.9285 25.8787C21.9545 25.3718 23.1832 25.1 24 25.1C24.8122 25.1 26.0409 25.3718 27.0681 25.8787C28.0928 26.3843 28.8729 27.1006 28.8994 27.9753C28.4156 28.8477 27.7103 29.5775 26.8546 30.091C25.9915 30.6088 25.0064 30.888 24 30.9C22.9936 30.888 22.0085 30.6088 21.1454 30.091Z" fill="white" stroke="#80BFD6" stroke-width="0.2"/>
</svg>
