<svg width="30" height="30" viewBox="0 0 30 30" fill="none" xmlns="http://www.w3.org/2000/svg">
<path d="M7.5 11.15H5.725V5.725H11.15V7.5V7.6H11.25H18.75H18.85V7.5V5.725H24.275V11.15H22.5H22.4V11.25V18.75V18.85H22.5H24.275V24.275H18.85V22.5V22.4H18.75H11.25H11.15V22.5V24.275H5.725V18.85H7.5H7.6V18.75V11.25V11.15H7.5ZM9.475 20.625V20.525H9.375H7.5H7.4V20.625V22.5V22.6H7.5H9.375H9.475V22.5V20.625ZM22.6 20.625V20.525H22.5H20.625H20.525V20.625V22.5V22.6H20.625H22.5H22.6V22.5V20.625ZM9.475 7.5V7.4H9.375H7.5H7.4V7.5V9.375V9.475H7.5H9.375H9.475V9.375V7.5ZM22.6 7.5V7.4H22.5H20.625H20.525V7.5V9.375V9.475H20.625H22.5H22.6V9.375V7.5ZM20.725 11.25V11.15H20.625H18.85V9.375V9.275H18.75H11.25H11.15V9.375V11.15H9.375H9.275V11.25V18.75V18.85H9.375H11.15V20.625V20.725H11.25H18.75H18.85V20.625V18.85H20.625H20.725V18.75V11.25Z" fill="white" stroke="#08429C" stroke-width="0.2"/>
</svg>
